<?xml version="1.0" encoding="UTF-8"?>
<svg version="1.1" xmlns="http://www.w3.org/2000/svg" width="108" height="91">
<path d="M0 0 C35.64 0 71.28 0 108 0 C108 30.03 108 60.06 108 91 C72.36 91 36.72 91 0 91 C0 60.97 0 30.94 0 0 Z " fill="#F8F5F5" transform="translate(0,0)"/>
<path d="M0 0 C0.89460938 -0.03738281 1.78921875 -0.07476562 2.7109375 -0.11328125 C7.17607314 -0.17255296 10.27550727 -0.11492136 13.828125 2.7734375 C17.3290841 6.53414517 17.33384993 8.34302639 17.5 13.375 C18.05351124 21.18469759 20.14422291 27.34497357 25.8125 32.875 C30.34358192 35.6633581 33.21788127 36.58614792 38.625 36.75 C45.31927288 37.17777304 48.10743993 38.30816427 52.87109375 42.95703125 C54.96612221 46.63074971 54.7244357 50.09305502 54.6875 54.25 C54.70748047 55.04019531 54.72746094 55.83039063 54.74804688 56.64453125 C54.74357325 62.02183149 53.83589735 65.13417383 50.25 69.375 C45.90612755 72.27091497 41.98706174 71.78141314 36.875 71.8125 C35.92882812 71.84537109 34.98265625 71.87824219 34.0078125 71.91210938 C29.25064745 71.94885714 27.00820335 71.96227337 23.1484375 68.97265625 C20.4841124 65.32702623 20.10693101 63.10140094 19.75683594 58.60986328 C19.10173904 50.86556458 18.31956484 43.8998603 12.25 38.375 C7.8073456 35.64540302 4.42268578 35.03392068 -0.75 34.9375 C-7.69957092 34.57134769 -10.41368024 33.58206766 -15.36328125 28.82421875 C-17.52156934 25.0122564 -17.26313008 21.30666553 -17.25 17 C-17.27835938 16.16210938 -17.30671875 15.32421875 -17.3359375 14.4609375 C-17.34952095 10.14140135 -17.12254515 7.25835064 -14.34375 3.8359375 C-9.81356502 -0.46228018 -5.99387029 0.09338891 0 0 Z " fill="#FF6103" transform="translate(35.75,9.625)"/>
<path d="M0 0 C1.30453125 -0.03738281 2.6090625 -0.07476562 3.953125 -0.11328125 C9.29338758 0.48557536 12.21539141 2.44371661 15.59765625 6.5625 C17.10566477 10.16127289 17.22644444 13.47470203 17.1875 17.3125 C17.2174707 18.36050781 17.2174707 18.36050781 17.24804688 19.4296875 C17.24467669 23.00208302 16.86203067 25.13128115 14.97265625 28.1875 C10.60373468 32.36446544 7.41268858 32.62724363 1.375 32.6875 C0.08851562 32.71585938 -1.19796875 32.74421875 -2.5234375 32.7734375 C-7.40088646 32.17014717 -10.55039968 30.48995896 -13.59765625 26.5859375 C-14.60866246 23.06255059 -14.65939034 19.57301632 -14.6875 15.9375 C-14.72037109 15.195 -14.75324219 14.4525 -14.78710938 13.6875 C-14.82689054 9.59365661 -14.47260747 7.0676856 -11.84765625 3.8359375 C-7.84522678 -0.05213684 -5.52505284 0.10291765 0 0 Z M-11.25 7.3125 C-11.68134507 10.20824312 -11.81996402 12.44504365 -11.6875 15.3125 C-11.68169922 16.0240625 -11.67589844 16.735625 -11.66992188 17.46875 C-11.54776441 22.73220794 -11.54776441 22.73220794 -9.25 27.3125 C-4.23973253 30.93424069 2.92017045 29.92507949 8.75 29.3125 C12.41666667 27.97916667 12.41666667 27.97916667 13.75 24.3125 C14.55647045 17.41635474 15.10389703 11.06293004 10.75 5.3125 C7.11795662 2.89113774 5.19856165 2.98320361 0.875 2.9375 C-0.33929688 2.90914062 -1.55359375 2.88078125 -2.8046875 2.8515625 C-6.95389331 3.40667167 -8.55336082 4.10486541 -11.25 7.3125 Z " fill="#D7D7D7" transform="translate(33.25,48.6875)"/>
<path d="M0 0 C1.11375 -0.04253906 1.11375 -0.04253906 2.25 -0.0859375 C6.33762171 -0.10038139 8.87735046 0.28838231 12.1015625 2.90625 C16.21905238 7.1384687 15.87070394 10.65264724 15.9375 16.3125 C15.96650391 17.12009766 15.99550781 17.92769531 16.02539062 18.75976562 C16.0679916 22.7609803 15.95471314 24.9504781 13.85546875 28.44921875 C9.20790281 32.72237482 5.54516421 32.8814635 -0.6171875 32.75 C-5.78814987 32.2812442 -9.0999787 30.84212768 -12.75 27 C-16.27611178 21.57521265 -15.83899148 15.76388498 -15.375 9.5 C-12.52963855 1.39071986 -8.1785713 -0.02810506 0 0 Z M-10.34765625 5.6640625 C-13.72711022 10.39139118 -13.05572837 14.91802734 -12.375 20.5 C-11.11321147 24.49566367 -10.16706554 25.92043985 -6.8125 28.375 C-1.1779956 30.21901962 4.21568736 30.5817322 9.6875 28.125 C11.7220615 26.63747501 11.7220615 26.63747501 12.625 24.5 C12.80224777 21.69309274 12.90250799 18.93369203 12.9375 16.125 C12.98100586 14.97257812 12.98100586 14.97257812 13.02539062 13.796875 C13.06558522 10.22264835 12.9874848 8.09577629 11.1015625 4.99609375 C7.67755568 2.92764799 4.57284526 2.87728954 0.6875 2.9375 C-0.01568359 2.91365234 -0.71886719 2.88980469 -1.44335938 2.86523438 C-5.28445969 2.87603409 -7.22573882 3.39133943 -10.34765625 5.6640625 Z " fill="#D7D7D7" transform="translate(73.375,9.5)"/>
</svg>
